M48
;Layer_Color=9474304
;FILE_FORMAT=4:4
METRIC,LZ
;TYPE=PLATED
T01F00S00C0.3000
T02F00S00C0.8000
T03F00S00C1.0000
T04F00S00C1.0128
T05F00S00C1.1000
T06F00S00C1.3000
T07F00S00C1.6300
%
T01
X006096Y0030861
X00998728Y0035179
X01058672Y00456532
X01094994Y00505714
Y00584962
X01061212Y0055626
X01028794Y00526542
X01086562Y0069088
X011557Y007112
X01140968Y0039751
X00621284Y0043434
T02
X004191Y0084455
X004699
X008382Y008636
X008732
X009477
X009827
T03
X00662Y002921
X00862
X008509Y003556
X00948944Y00321386
Y00521386
Y00572673
X008509Y005842
Y005056
Y007342
X00948944Y00772673
X007604Y0085725
X005604
T04
X004445Y006223
X007239
T05
X011049Y004445
X011303
X011557
T06
X0032Y004094
Y004844
Y005594
Y006344
Y007094
Y007844
T07
X00998474Y00617474
Y00668274
Y00719074
Y00769874
M30
