G04*
G04 #@! TF.GenerationSoftware,Altium Limited,Altium Designer,24.5.1 (21)*
G04*
G04 Layer_Color=8388736*
%FSLAX44Y44*%
%MOMM*%
G71*
G04*
G04 #@! TF.SameCoordinates,667E7DA7-0DE7-46C7-9864-8DF00163D8D0*
G04*
G04*
G04 #@! TF.FilePolarity,Negative*
G04*
G01*
G75*
%ADD30R,1.1032X1.5032*%
%ADD31R,1.5032X1.1032*%
%ADD32R,1.7532X1.6032*%
%ADD33R,1.6032X2.1032*%
%ADD34R,1.0032X1.3532*%
%ADD35R,1.7532X2.5032*%
%ADD36R,1.4532X0.9032*%
%ADD37R,1.6032X1.1532*%
%ADD38R,1.4532X0.8032*%
%ADD39R,4.3032X2.6032*%
%ADD40R,0.6532X1.3032*%
%ADD41R,2.1032X1.6032*%
%ADD42R,2.6032X1.6032*%
%ADD43R,5.9532X6.1032*%
%ADD44R,0.9032X1.4532*%
%ADD45R,1.7032X1.7032*%
%ADD46C,1.7032*%
%ADD47C,1.7222*%
%ADD48R,1.7222X1.7222*%
%ADD49C,2.0032*%
%ADD50C,1.5032*%
%ADD51R,1.5032X1.5032*%
G04:AMPARAMS|DCode=52|XSize=1.5032mm|YSize=1.5032mm|CornerRadius=0.4266mm|HoleSize=0mm|Usage=FLASHONLY|Rotation=0.000|XOffset=0mm|YOffset=0mm|HoleType=Round|Shape=RoundedRectangle|*
%AMROUNDEDRECTD52*
21,1,1.5032,0.6500,0,0,0.0*
21,1,0.6500,1.5032,0,0,0.0*
1,1,0.8532,0.3250,-0.3250*
1,1,0.8532,-0.3250,-0.3250*
1,1,0.8532,-0.3250,0.3250*
1,1,0.8532,0.3250,0.3250*
%
%ADD52ROUNDEDRECTD52*%
G04:AMPARAMS|DCode=53|XSize=1.8032mm|YSize=1.8032mm|CornerRadius=0.5016mm|HoleSize=0mm|Usage=FLASHONLY|Rotation=180.000|XOffset=0mm|YOffset=0mm|HoleType=Round|Shape=RoundedRectangle|*
%AMROUNDEDRECTD53*
21,1,1.8032,0.8000,0,0,180.0*
21,1,0.8000,1.8032,0,0,180.0*
1,1,1.0032,-0.4000,0.4000*
1,1,1.0032,0.4000,0.4000*
1,1,1.0032,0.4000,-0.4000*
1,1,1.0032,-0.4000,-0.4000*
%
%ADD53ROUNDEDRECTD53*%
%ADD54C,1.8032*%
%ADD55R,2.6482X2.6482*%
%ADD56C,2.6482*%
%ADD57C,2.1532*%
G04:AMPARAMS|DCode=58|XSize=2.1532mm|YSize=2.1532mm|CornerRadius=0.5891mm|HoleSize=0mm|Usage=FLASHONLY|Rotation=270.000|XOffset=0mm|YOffset=0mm|HoleType=Round|Shape=RoundedRectangle|*
%AMROUNDEDRECTD58*
21,1,2.1532,0.9750,0,0,270.0*
21,1,0.9750,2.1532,0,0,270.0*
1,1,1.1782,-0.4875,-0.4875*
1,1,1.1782,-0.4875,0.4875*
1,1,1.1782,0.4875,0.4875*
1,1,1.1782,0.4875,-0.4875*
%
%ADD58ROUNDEDRECTD58*%
%ADD59C,0.8032*%
D30*
X1076300Y622300D02*
D03*
X1057300D02*
D03*
D31*
X984758Y536804D02*
D03*
Y517804D02*
D03*
X1104900Y631800D02*
D03*
Y612800D02*
D03*
D32*
X1166368Y378712D02*
D03*
X1140968D02*
D03*
Y283212D02*
D03*
X1166368D02*
D03*
D33*
X1000760Y375430D02*
D03*
X1026160D02*
D03*
X1051560D02*
D03*
Y282430D02*
D03*
X1026160D02*
D03*
X1000760D02*
D03*
D34*
X1097788Y308890D02*
D03*
Y343890D02*
D03*
X1034288Y426264D02*
D03*
Y461264D02*
D03*
D35*
X1065276Y728546D02*
D03*
Y685546D02*
D03*
D36*
X990854Y453738D02*
D03*
Y433738D02*
D03*
X1136396Y528734D02*
D03*
Y548734D02*
D03*
X1169162Y528734D02*
D03*
Y548734D02*
D03*
X1018794Y536542D02*
D03*
Y516542D02*
D03*
X1070356Y456532D02*
D03*
Y436532D02*
D03*
D37*
X1143000Y628600D02*
D03*
Y609600D02*
D03*
D38*
X1104900Y711200D02*
D03*
Y692200D02*
D03*
X1125900Y701700D02*
D03*
D39*
X1088644Y543874D02*
D03*
D40*
X1069594Y571874D02*
D03*
X1082294D02*
D03*
X1094994D02*
D03*
X1107694D02*
D03*
Y515874D02*
D03*
X1094994D02*
D03*
X1082294D02*
D03*
X1069594D02*
D03*
D41*
X652000Y349250D02*
D03*
Y374650D02*
D03*
Y400050D02*
D03*
X745000D02*
D03*
Y374650D02*
D03*
Y349250D02*
D03*
D42*
X487200Y351800D02*
D03*
Y397500D02*
D03*
D43*
X552450Y374650D02*
D03*
D44*
X613250Y286004D02*
D03*
X593250D02*
D03*
X504378Y288290D02*
D03*
X484378D02*
D03*
X447896Y288036D02*
D03*
X427896D02*
D03*
X561942D02*
D03*
X541942D02*
D03*
D45*
X850900Y355600D02*
D03*
Y584200D02*
D03*
D46*
Y505600D02*
D03*
Y734200D02*
D03*
D47*
X723900Y622300D02*
D03*
D48*
X444500D02*
D03*
D49*
X948944Y572673D02*
D03*
Y772673D02*
D03*
X662000Y292100D02*
D03*
X862000D02*
D03*
X760400Y857250D02*
D03*
X560400D02*
D03*
X948944Y521386D02*
D03*
Y321386D02*
D03*
D50*
X469900Y844550D02*
D03*
X947700Y863600D02*
D03*
X838200D02*
D03*
D51*
X419100Y844550D02*
D03*
D52*
X982700Y863600D02*
D03*
X873200D02*
D03*
D53*
X1155700Y444500D02*
D03*
D54*
X1130300D02*
D03*
X1104900D02*
D03*
D55*
X998474Y617474D02*
D03*
D56*
Y668274D02*
D03*
Y719074D02*
D03*
Y769874D02*
D03*
D57*
X320000Y559400D02*
D03*
Y709400D02*
D03*
Y634400D02*
D03*
Y484400D02*
D03*
Y409400D02*
D03*
D58*
Y784400D02*
D03*
D59*
X1061212Y556260D02*
D03*
X1028794Y526542D02*
D03*
X1155700Y711200D02*
D03*
X621284Y434340D02*
D03*
X1094994Y584962D02*
D03*
X1140968Y397510D02*
D03*
X1058672Y456532D02*
D03*
X1086562Y690880D02*
D03*
X998728Y351790D02*
D03*
X609600Y308610D02*
D03*
X1094994Y505714D02*
D03*
M02*
