G04*
G04 #@! TF.GenerationSoftware,Altium Limited,Altium Designer,24.5.1 (21)*
G04*
G04 Layer_Color=128*
%FSLAX44Y44*%
%MOMM*%
G71*
G04*
G04 #@! TF.SameCoordinates,667E7DA7-0DE7-46C7-9864-8DF00163D8D0*
G04*
G04*
G04 #@! TF.FilePolarity,Positive*
G04*
G01*
G75*
%ADD13C,0.1270*%
D13*
X845900Y355600D02*
X855900D01*
X850900Y350600D02*
Y360600D01*
X845900Y505600D02*
X855900D01*
X850900Y500600D02*
Y510600D01*
X718836Y622300D02*
X728964D01*
X723900Y617236D02*
Y627364D01*
X439436Y622300D02*
X449564D01*
X444500Y617236D02*
Y627364D01*
X845900Y584200D02*
X855900D01*
X850900Y579200D02*
Y589200D01*
X845900Y734200D02*
X855900D01*
X850900Y729200D02*
Y739200D01*
X943944Y572673D02*
X953944D01*
X948944Y567673D02*
Y577673D01*
X943944Y772673D02*
X953944D01*
X948944Y767673D02*
Y777673D01*
X657000Y292100D02*
X667000D01*
X662000Y287100D02*
Y297100D01*
X857000Y292100D02*
X867000D01*
X862000Y287100D02*
Y297100D01*
X755400Y857250D02*
X765400D01*
X760400Y852250D02*
Y862250D01*
X555400Y857250D02*
X565400D01*
X560400Y852250D02*
Y862250D01*
X943944Y521386D02*
X953944D01*
X948944Y516386D02*
Y526386D01*
X943944Y321386D02*
X953944D01*
X948944Y316386D02*
Y326386D01*
X465900Y844550D02*
X473900D01*
X469900Y840550D02*
Y848550D01*
X415100Y844550D02*
X423100D01*
X419100Y840550D02*
Y848550D01*
X978700Y863600D02*
X986700D01*
X982700Y859600D02*
Y867600D01*
X943700Y863600D02*
X951700D01*
X947700Y859600D02*
Y867600D01*
X834200Y863600D02*
X842200D01*
X838200Y859600D02*
Y867600D01*
X869200Y863600D02*
X877200D01*
X873200Y859600D02*
Y867600D01*
X1150200Y444500D02*
X1161200D01*
X1155700Y439000D02*
Y450000D01*
X1124800Y444500D02*
X1135800D01*
X1130300Y439000D02*
Y450000D01*
X1099400Y444500D02*
X1110400D01*
X1104900Y439000D02*
Y450000D01*
X990324Y617474D02*
X1006624D01*
X998474Y609324D02*
Y625624D01*
X990324Y668274D02*
X1006624D01*
X998474Y660124D02*
Y676424D01*
X990324Y719074D02*
X1006624D01*
X998474Y710924D02*
Y727224D01*
X990324Y769874D02*
X1006624D01*
X998474Y761724D02*
Y778024D01*
X313500Y559400D02*
X326500D01*
X320000Y552900D02*
Y565900D01*
X313500Y709400D02*
X326500D01*
X320000Y702900D02*
Y715900D01*
X313500Y784400D02*
X326500D01*
X320000Y777900D02*
Y790900D01*
X313500Y634400D02*
X326500D01*
X320000Y627900D02*
Y640900D01*
X313500Y484400D02*
X326500D01*
X320000Y477900D02*
Y490900D01*
X313500Y409400D02*
X326500D01*
X320000Y402900D02*
Y415900D01*
X1059712Y556260D02*
X1062712D01*
X1061212Y554760D02*
Y557760D01*
X1027294Y526542D02*
X1030294D01*
X1028794Y525042D02*
Y528042D01*
X1154200Y711200D02*
X1157200D01*
X1155700Y709700D02*
Y712700D01*
X619784Y434340D02*
X622784D01*
X621284Y432840D02*
Y435840D01*
X1093494Y584962D02*
X1096494D01*
X1094994Y583462D02*
Y586462D01*
X1139468Y397510D02*
X1142468D01*
X1140968Y396010D02*
Y399010D01*
X1057172Y456532D02*
X1060172D01*
X1058672Y455032D02*
Y458032D01*
X1085062Y690880D02*
X1088062D01*
X1086562Y689380D02*
Y692380D01*
X997228Y351790D02*
X1000228D01*
X998728Y350290D02*
Y353290D01*
X608100Y308610D02*
X611100D01*
X609600Y307110D02*
Y310110D01*
X1093494Y505714D02*
X1096494D01*
X1094994Y504214D02*
Y507214D01*
M02*
