G04*
G04 #@! TF.GenerationSoftware,Altium Limited,Altium Designer,24.5.1 (21)*
G04*
G04 Layer_Color=32768*
%FSLAX44Y44*%
%MOMM*%
G71*
G04*
G04 #@! TF.SameCoordinates,667E7DA7-0DE7-46C7-9864-8DF00163D8D0*
G04*
G04*
G04 #@! TF.FilePolarity,Positive*
G04*
G01*
G75*
%ADD11C,0.1000*%
G36*
X818854Y848032D02*
X818075Y849875D01*
X816893Y853698D01*
X816099Y857619D01*
X815700Y861600D01*
Y865600D01*
X816099Y869581D01*
X816893Y873503D01*
X818075Y877325D01*
X818854Y879168D01*
X818854D01*
X829079Y874848D01*
X829075Y874840D01*
X828547Y873497D01*
X827696Y870740D01*
X827124Y867913D01*
X826836Y865042D01*
Y862158D01*
X827124Y859287D01*
X827696Y856460D01*
X828547Y853703D01*
X829075Y852360D01*
X829075Y852360D01*
X829079Y852352D01*
X818854Y848032D01*
D02*
G37*
G36*
X928354D02*
X927575Y849875D01*
X926394Y853698D01*
X925599Y857619D01*
X925200Y861600D01*
Y865600D01*
X925599Y869581D01*
X926394Y873503D01*
X927575Y877325D01*
X928354Y879168D01*
X928354D01*
X938579Y874848D01*
X938575Y874840D01*
X938047Y873497D01*
X937196Y870740D01*
X936624Y867913D01*
X936336Y865042D01*
Y862158D01*
X936624Y859287D01*
X937196Y856460D01*
X938047Y853703D01*
X938575Y852360D01*
X938575Y852360D01*
X938579Y852352D01*
X928354Y848032D01*
D02*
G37*
D11*
X994100Y863600D02*
G03*
X994100Y863600I-28900J0D01*
G01*
X1005200D02*
G03*
X1005200Y863600I-40000J0D01*
G01*
X895700D02*
G03*
X895700Y863600I-40000J0D01*
G01*
X884600D02*
G03*
X884600Y863600I-28900J0D01*
G01*
X1092200Y431800D02*
X1168400D01*
X1092200Y457200D02*
X1168400D01*
Y431800D02*
Y457200D01*
X1092200Y431800D02*
Y457200D01*
X1056800Y616050D02*
X1076800D01*
X1056800Y628550D02*
X1076800D01*
Y616050D02*
Y628550D01*
X1056800Y616050D02*
Y628550D01*
X991008Y517304D02*
Y537304D01*
X978508Y517304D02*
Y537304D01*
X991008D01*
X978508Y517304D02*
X991008D01*
X984604Y433738D02*
X997104D01*
Y453738D01*
X984604D02*
X997104D01*
X984604Y433738D02*
Y453738D01*
X1130146Y548734D02*
X1142646D01*
X1130146Y528734D02*
Y548734D01*
Y528734D02*
X1142646D01*
Y548734D01*
X1111150Y612300D02*
Y632300D01*
X1098650Y612300D02*
Y632300D01*
X1111150D01*
X1098650Y612300D02*
X1111150D01*
X1162912Y548734D02*
X1175412D01*
X1162912Y528734D02*
Y548734D01*
Y528734D02*
X1175412D01*
Y548734D01*
X1012544Y516542D02*
X1025044D01*
Y536542D01*
X1012544D02*
X1025044D01*
X1012544Y516542D02*
Y536542D01*
X1064106Y436532D02*
X1076606D01*
Y456532D01*
X1064106D02*
X1076606D01*
X1064106Y436532D02*
Y456532D01*
X300100Y379400D02*
X336500D01*
X300100Y371900D02*
Y379400D01*
X336500Y371900D02*
Y379400D01*
Y371900D02*
X355000D01*
X280000D02*
X300100D01*
X280000Y596900D02*
X290000D01*
X280000Y746900D02*
X290000D01*
X290050Y371900D02*
Y821900D01*
X280000D02*
X300100D01*
X336500D02*
X355000D01*
X336500Y814400D02*
Y821900D01*
X300100Y814400D02*
Y821900D01*
Y814400D02*
X336500D01*
X355000Y371900D02*
Y821900D01*
X280000Y371900D02*
Y821900D01*
Y671900D02*
X290000D01*
X280000Y521900D02*
X290000D01*
X280000Y446900D02*
X290000D01*
X593250Y279754D02*
Y292254D01*
Y279754D02*
X613250D01*
Y292254D01*
X593250D02*
X613250D01*
X484378Y282040D02*
Y294540D01*
Y282040D02*
X504378D01*
Y294540D01*
X484378D02*
X504378D01*
X427896Y281786D02*
Y294286D01*
Y281786D02*
X447896D01*
Y294286D01*
X427896D02*
X447896D01*
X541942Y281786D02*
Y294286D01*
Y281786D02*
X561942D01*
Y294286D01*
X541942D02*
X561942D01*
M02*
