G04*
G04 #@! TF.GenerationSoftware,Altium Limited,Altium Designer,24.5.1 (21)*
G04*
G04 Layer_Color=8421504*
%FSLAX44Y44*%
%MOMM*%
G71*
G04*
G04 #@! TF.SameCoordinates,667E7DA7-0DE7-46C7-9864-8DF00163D8D0*
G04*
G04*
G04 #@! TF.FilePolarity,Positive*
G04*
G01*
G75*
%ADD15R,0.9000X1.3000*%
%ADD16R,1.3000X0.9000*%
%ADD17R,1.5500X1.4000*%
%ADD18R,1.4000X1.9000*%
%ADD19R,0.8000X1.1500*%
%ADD20R,1.5500X2.3000*%
%ADD21R,1.2500X0.7000*%
%ADD22R,1.4000X0.9500*%
%ADD23R,1.2500X0.6000*%
%ADD24R,4.1000X2.4000*%
%ADD25R,0.4500X1.1000*%
%ADD26R,1.9000X1.4000*%
%ADD27R,2.4000X1.4000*%
%ADD28R,5.7500X5.9000*%
%ADD29R,0.7000X1.2500*%
D15*
X1076300Y622300D02*
D03*
X1057300D02*
D03*
D16*
X984758Y536804D02*
D03*
Y517804D02*
D03*
X1104900Y631800D02*
D03*
Y612800D02*
D03*
D17*
X1166368Y378712D02*
D03*
X1140968D02*
D03*
Y283212D02*
D03*
X1166368D02*
D03*
D18*
X1000760Y375430D02*
D03*
X1026160D02*
D03*
X1051560D02*
D03*
Y282430D02*
D03*
X1026160D02*
D03*
X1000760D02*
D03*
D19*
X1097788Y308890D02*
D03*
Y343890D02*
D03*
X1034288Y426264D02*
D03*
Y461264D02*
D03*
D20*
X1065276Y728546D02*
D03*
Y685546D02*
D03*
D21*
X990854Y453738D02*
D03*
Y433738D02*
D03*
X1136396Y528734D02*
D03*
Y548734D02*
D03*
X1169162Y528734D02*
D03*
Y548734D02*
D03*
X1018794Y536542D02*
D03*
Y516542D02*
D03*
X1070356Y456532D02*
D03*
Y436532D02*
D03*
D22*
X1143000Y628600D02*
D03*
Y609600D02*
D03*
D23*
X1104900Y711200D02*
D03*
Y692200D02*
D03*
X1125900Y701700D02*
D03*
D24*
X1088644Y543874D02*
D03*
D25*
X1069594Y571874D02*
D03*
X1082294D02*
D03*
X1094994D02*
D03*
X1107694D02*
D03*
Y515874D02*
D03*
X1094994D02*
D03*
X1082294D02*
D03*
X1069594D02*
D03*
D26*
X652000Y349250D02*
D03*
Y374650D02*
D03*
Y400050D02*
D03*
X745000D02*
D03*
Y374650D02*
D03*
Y349250D02*
D03*
D27*
X487200Y351800D02*
D03*
Y397500D02*
D03*
D28*
X552450Y374650D02*
D03*
D29*
X613250Y286004D02*
D03*
X593250D02*
D03*
X504378Y288290D02*
D03*
X484378D02*
D03*
X447896Y288036D02*
D03*
X427896D02*
D03*
X561942D02*
D03*
X541942D02*
D03*
M02*
