G04*
G04 #@! TF.GenerationSoftware,Altium Limited,Altium Designer,24.5.1 (21)*
G04*
G04 Layer_Physical_Order=2*
G04 Layer_Color=16711680*
%FSLAX44Y44*%
%MOMM*%
G71*
G04*
G04 #@! TF.SameCoordinates,667E7DA7-0DE7-46C7-9864-8DF00163D8D0*
G04*
G04*
G04 #@! TF.FilePolarity,Positive*
G04*
G01*
G75*
%ADD60C,0.5000*%
%ADD61R,1.5000X1.5000*%
%ADD62C,1.5000*%
%ADD63C,1.5190*%
%ADD64R,1.5190X1.5190*%
%ADD65C,1.8000*%
%ADD66C,1.3000*%
%ADD67R,1.3000X1.3000*%
G04:AMPARAMS|DCode=68|XSize=1.3mm|YSize=1.3mm|CornerRadius=0.325mm|HoleSize=0mm|Usage=FLASHONLY|Rotation=0.000|XOffset=0mm|YOffset=0mm|HoleType=Round|Shape=RoundedRectangle|*
%AMROUNDEDRECTD68*
21,1,1.3000,0.6500,0,0,0.0*
21,1,0.6500,1.3000,0,0,0.0*
1,1,0.6500,0.3250,-0.3250*
1,1,0.6500,-0.3250,-0.3250*
1,1,0.6500,-0.3250,0.3250*
1,1,0.6500,0.3250,0.3250*
%
%ADD68ROUNDEDRECTD68*%
G04:AMPARAMS|DCode=69|XSize=1.6mm|YSize=1.6mm|CornerRadius=0.4mm|HoleSize=0mm|Usage=FLASHONLY|Rotation=180.000|XOffset=0mm|YOffset=0mm|HoleType=Round|Shape=RoundedRectangle|*
%AMROUNDEDRECTD69*
21,1,1.6000,0.8000,0,0,180.0*
21,1,0.8000,1.6000,0,0,180.0*
1,1,0.8000,-0.4000,0.4000*
1,1,0.8000,0.4000,0.4000*
1,1,0.8000,0.4000,-0.4000*
1,1,0.8000,-0.4000,-0.4000*
%
%ADD69ROUNDEDRECTD69*%
%ADD70C,1.6000*%
%ADD71R,2.4450X2.4450*%
%ADD72C,2.4450*%
%ADD73C,1.9500*%
G04:AMPARAMS|DCode=74|XSize=1.95mm|YSize=1.95mm|CornerRadius=0.4875mm|HoleSize=0mm|Usage=FLASHONLY|Rotation=270.000|XOffset=0mm|YOffset=0mm|HoleType=Round|Shape=RoundedRectangle|*
%AMROUNDEDRECTD74*
21,1,1.9500,0.9750,0,0,270.0*
21,1,0.9750,1.9500,0,0,270.0*
1,1,0.9750,-0.4875,-0.4875*
1,1,0.9750,-0.4875,0.4875*
1,1,0.9750,0.4875,0.4875*
1,1,0.9750,0.4875,-0.4875*
%
%ADD74ROUNDEDRECTD74*%
%ADD75C,0.6000*%
G36*
X1270000Y254000D02*
X254000D01*
Y939800D01*
X1270000D01*
Y254000D01*
D02*
G37*
%LPC*%
G36*
X839470Y872619D02*
Y864870D01*
X847219D01*
X846624Y867089D01*
X845434Y869151D01*
X843751Y870834D01*
X841689Y872024D01*
X839470Y872619D01*
D02*
G37*
G36*
X836930D02*
X834711Y872024D01*
X832649Y870834D01*
X830966Y869151D01*
X829776Y867089D01*
X829181Y864870D01*
X836930D01*
Y872619D01*
D02*
G37*
G36*
Y862330D02*
X829181D01*
X829283Y861950D01*
X756872Y789539D01*
X332319D01*
X332099Y791211D01*
X331352Y793015D01*
X330163Y794564D01*
X328614Y795752D01*
X326811Y796499D01*
X324875Y796754D01*
X321270D01*
Y784400D01*
Y772046D01*
X324875D01*
X326811Y772301D01*
X328614Y773048D01*
X330163Y774237D01*
X331352Y775786D01*
X332099Y777590D01*
X332319Y779261D01*
X759000D01*
X760967Y779653D01*
X762634Y780767D01*
X836550Y854683D01*
X836930Y854581D01*
Y862330D01*
D02*
G37*
G36*
X956719D02*
X948970D01*
Y854581D01*
X951189Y855176D01*
X953251Y856366D01*
X954934Y858049D01*
X956124Y860111D01*
X956719Y862330D01*
D02*
G37*
G36*
X971016Y880423D02*
X884884D01*
X882918Y880032D01*
X881251Y878918D01*
X875086Y872753D01*
X869950D01*
X867691Y872304D01*
X865776Y871024D01*
X864496Y869109D01*
X864047Y866850D01*
Y860350D01*
X864106Y860055D01*
X861855Y857055D01*
X852012D01*
X847117Y861950D01*
X847219Y862330D01*
X839470D01*
Y854581D01*
X839850Y854683D01*
X846250Y848282D01*
X847917Y847168D01*
X849884Y846777D01*
X936016D01*
X937982Y847168D01*
X939650Y848282D01*
X946050Y854683D01*
X946430Y854581D01*
Y862330D01*
X938681D01*
X938783Y861950D01*
X933887Y857055D01*
X884545D01*
X882295Y860055D01*
X882354Y860350D01*
Y865486D01*
X887013Y870145D01*
X937576D01*
X939308Y867145D01*
X939276Y867089D01*
X938681Y864870D01*
X956719D01*
X956124Y867089D01*
X956092Y867145D01*
X957824Y870145D01*
X968888D01*
X973547Y865486D01*
Y860350D01*
X973996Y858091D01*
X975276Y856176D01*
X977191Y854896D01*
X979450Y854447D01*
X985950D01*
X988209Y854896D01*
X990124Y856176D01*
X991404Y858091D01*
X991853Y860350D01*
Y866850D01*
X991404Y869109D01*
X990124Y871024D01*
X988209Y872304D01*
X985950Y872753D01*
X980814D01*
X974650Y878918D01*
X972983Y880032D01*
X971016Y880423D01*
D02*
G37*
G36*
X761919Y868790D02*
X758880D01*
X755946Y868003D01*
X753314Y866484D01*
X751165Y864336D01*
X749646Y861704D01*
X748860Y858769D01*
Y855731D01*
X749646Y852796D01*
X751165Y850164D01*
X753314Y848016D01*
X755946Y846497D01*
X758880Y845710D01*
X761919D01*
X764854Y846497D01*
X767486Y848016D01*
X769634Y850164D01*
X771153Y852796D01*
X771940Y855731D01*
Y858769D01*
X771153Y861704D01*
X769634Y864336D01*
X767486Y866484D01*
X764854Y868003D01*
X761919Y868790D01*
D02*
G37*
G36*
X471090Y853590D02*
X468710D01*
X466411Y852974D01*
X464349Y851784D01*
X462666Y850101D01*
X461476Y848039D01*
X460860Y845740D01*
Y843360D01*
X461476Y841061D01*
X462666Y838999D01*
X464349Y837316D01*
X466411Y836126D01*
X468710Y835510D01*
X471090D01*
X473389Y836126D01*
X475451Y837316D01*
X477134Y838999D01*
X478324Y841061D01*
X478940Y843360D01*
Y845740D01*
X478324Y848039D01*
X477134Y850101D01*
X475451Y851784D01*
X473389Y852974D01*
X471090Y853590D01*
D02*
G37*
G36*
X428140D02*
X410060D01*
Y835510D01*
X428140D01*
Y853590D01*
D02*
G37*
G36*
X318730Y796754D02*
X315125D01*
X313189Y796499D01*
X311385Y795752D01*
X309836Y794564D01*
X308648Y793015D01*
X307901Y791211D01*
X307646Y789275D01*
Y785670D01*
X318730D01*
Y796754D01*
D02*
G37*
G36*
Y783130D02*
X307646D01*
Y779525D01*
X307901Y777590D01*
X308648Y775786D01*
X309836Y774237D01*
X311385Y773048D01*
X313189Y772301D01*
X315125Y772046D01*
X318730D01*
Y783130D01*
D02*
G37*
G36*
X950463Y784213D02*
X947425D01*
X944490Y783427D01*
X941858Y781907D01*
X939710Y779759D01*
X938191Y777127D01*
X937404Y774192D01*
Y771154D01*
X938191Y768219D01*
X939710Y765587D01*
X941858Y763439D01*
X944490Y761919D01*
X947425Y761133D01*
X950463D01*
X953398Y761919D01*
X956030Y763439D01*
X958178Y765587D01*
X959697Y768219D01*
X960484Y771154D01*
Y774192D01*
X959697Y777127D01*
X958178Y779759D01*
X956030Y781907D01*
X953398Y783427D01*
X950463Y784213D01*
D02*
G37*
G36*
X852222Y744240D02*
X849578D01*
X847025Y743556D01*
X844735Y742234D01*
X842866Y740365D01*
X841544Y738075D01*
X840860Y735522D01*
Y732878D01*
X841544Y730325D01*
X842866Y728036D01*
X844735Y726166D01*
X847025Y724844D01*
X849578Y724160D01*
X852222D01*
X854775Y724844D01*
X857065Y726166D01*
X858934Y728036D01*
X860256Y730325D01*
X860940Y732878D01*
Y735522D01*
X860256Y738075D01*
X858934Y740365D01*
X857065Y742234D01*
X854775Y743556D01*
X852222Y744240D01*
D02*
G37*
G36*
X999928Y733839D02*
X997020D01*
X994167Y733272D01*
X991480Y732159D01*
X989062Y730543D01*
X987005Y728486D01*
X985389Y726068D01*
X984276Y723381D01*
X983709Y720528D01*
Y717620D01*
X984276Y714767D01*
X985045Y712912D01*
X969421Y697289D01*
X377750D01*
X375783Y696898D01*
X374116Y695784D01*
X324303Y645971D01*
X321618Y646690D01*
X318382D01*
X315256Y645853D01*
X312454Y644234D01*
X310165Y641946D01*
X308547Y639144D01*
X307710Y636018D01*
Y632782D01*
X308547Y629656D01*
X310165Y626854D01*
X312454Y624566D01*
X315256Y622948D01*
X318382Y622110D01*
X321618D01*
X324744Y622948D01*
X327546Y624566D01*
X329834Y626854D01*
X331452Y629656D01*
X332290Y632782D01*
Y636018D01*
X331570Y638703D01*
X379878Y687011D01*
X971550D01*
X973516Y687402D01*
X975184Y688516D01*
X992312Y705645D01*
X994167Y704876D01*
X997020Y704309D01*
X999928D01*
X1002781Y704876D01*
X1005468Y705989D01*
X1007886Y707605D01*
X1009943Y709662D01*
X1011559Y712080D01*
X1012672Y714767D01*
X1013239Y717620D01*
Y720528D01*
X1012672Y723381D01*
X1011559Y726068D01*
X1009943Y728486D01*
X1007886Y730543D01*
X1005468Y732159D01*
X1002781Y733272D01*
X999928Y733839D01*
D02*
G37*
G36*
X321618Y721690D02*
X318382D01*
X315256Y720853D01*
X312454Y719235D01*
X310165Y716946D01*
X308547Y714144D01*
X307710Y711018D01*
Y707782D01*
X308547Y704656D01*
X310165Y701854D01*
X312454Y699566D01*
X315256Y697948D01*
X318382Y697110D01*
X321618D01*
X324744Y697948D01*
X327546Y699566D01*
X329834Y701854D01*
X331452Y704656D01*
X332290Y707782D01*
Y711018D01*
X331452Y714144D01*
X329834Y716946D01*
X327546Y719235D01*
X324744Y720853D01*
X321618Y721690D01*
D02*
G37*
G36*
X1056640Y903791D02*
X601802D01*
X599836Y903400D01*
X598169Y902286D01*
X564091Y868208D01*
X561920Y868790D01*
X558881D01*
X555946Y868003D01*
X553315Y866484D01*
X551166Y864336D01*
X549647Y861704D01*
X548860Y858769D01*
Y855731D01*
X549647Y852796D01*
X551166Y850164D01*
X553315Y848016D01*
X555946Y846497D01*
X558881Y845710D01*
X561920D01*
X564855Y846497D01*
X567486Y848016D01*
X569635Y850164D01*
X571154Y852796D01*
X571940Y855731D01*
Y858769D01*
X571358Y860941D01*
X603931Y893513D01*
X1054511D01*
X1089601Y858423D01*
Y697714D01*
X1087664Y696420D01*
X1085460D01*
X1084492Y696019D01*
X1079596D01*
X1011903Y763712D01*
X1012672Y765567D01*
X1013239Y768420D01*
Y771328D01*
X1012672Y774181D01*
X1011559Y776868D01*
X1009943Y779286D01*
X1007886Y781343D01*
X1005468Y782959D01*
X1002781Y784072D01*
X999928Y784639D01*
X997020D01*
X994167Y784072D01*
X991480Y782959D01*
X989062Y781343D01*
X987005Y779286D01*
X985389Y776868D01*
X984276Y774181D01*
X983709Y771328D01*
Y768420D01*
X984276Y765567D01*
X985389Y762880D01*
X987005Y760462D01*
X989062Y758405D01*
X991480Y756789D01*
X994167Y755676D01*
X997020Y755109D01*
X999928D01*
X1002781Y755676D01*
X1004636Y756445D01*
X1073834Y687246D01*
X1075501Y686132D01*
X1077468Y685741D01*
X1084492D01*
X1085460Y685340D01*
X1087664D01*
X1089601Y684046D01*
Y653639D01*
X1077372Y641409D01*
X973582D01*
X971616Y641018D01*
X969948Y639904D01*
X945310Y615266D01*
X944196Y613599D01*
X943805Y611632D01*
Y583031D01*
X941858Y581907D01*
X939710Y579759D01*
X938191Y577127D01*
X937404Y574192D01*
Y571154D01*
X938191Y568219D01*
X939710Y565587D01*
X941858Y563439D01*
X944490Y561919D01*
X947425Y561133D01*
X949673D01*
X950883Y559059D01*
X951044Y558261D01*
X832262Y439479D01*
X623355D01*
X622386Y439880D01*
X620182D01*
X618146Y439037D01*
X616587Y437478D01*
X615744Y435442D01*
Y433238D01*
X616587Y431202D01*
X618146Y429643D01*
X620182Y428800D01*
X622386D01*
X623355Y429201D01*
X834390D01*
X836357Y429592D01*
X838024Y430706D01*
X936870Y529552D01*
X939270Y527710D01*
X938191Y525840D01*
X937404Y522905D01*
Y519866D01*
X937986Y517695D01*
X734040Y313749D01*
X611671D01*
X610702Y314150D01*
X608498D01*
X606462Y313307D01*
X604903Y311748D01*
X604060Y309712D01*
Y307508D01*
X604903Y305472D01*
X606462Y303913D01*
X608498Y303070D01*
X610702D01*
X611671Y303471D01*
X652831D01*
X654052Y300471D01*
X652766Y299186D01*
X651247Y296554D01*
X650460Y293619D01*
Y290581D01*
X651247Y287646D01*
X652766Y285014D01*
X654914Y282866D01*
X657546Y281346D01*
X660481Y280560D01*
X663520D01*
X665691Y281142D01*
X675131Y271702D01*
X676798Y270588D01*
X678764Y270197D01*
X869950D01*
X871917Y270588D01*
X873584Y271702D01*
X948532Y346651D01*
X996657D01*
X997626Y346250D01*
X999830D01*
X1001866Y347093D01*
X1003425Y348652D01*
X1004268Y350688D01*
Y352892D01*
X1003425Y354928D01*
X1001866Y356487D01*
X999830Y357330D01*
X997626D01*
X996657Y356929D01*
X946404D01*
X944437Y356538D01*
X942770Y355424D01*
X876176Y288830D01*
X873487Y290383D01*
X873540Y290581D01*
Y293619D01*
X872753Y296554D01*
X871234Y299186D01*
X869085Y301334D01*
X866454Y302854D01*
X863519Y303640D01*
X860480D01*
X857545Y302854D01*
X854914Y301334D01*
X852766Y299186D01*
X851246Y296554D01*
X850460Y293619D01*
Y290581D01*
X851246Y287646D01*
X852766Y285014D01*
X854305Y283475D01*
X853577Y280939D01*
X853255Y280475D01*
X680893D01*
X672958Y288409D01*
X673540Y290581D01*
Y293619D01*
X672754Y296554D01*
X671235Y299186D01*
X669949Y300471D01*
X671169Y303471D01*
X736168D01*
X738135Y303862D01*
X739802Y304976D01*
X945253Y510428D01*
X947425Y509846D01*
X950463D01*
X953398Y510632D01*
X956030Y512151D01*
X958178Y514300D01*
X959697Y516931D01*
X960484Y519866D01*
Y522905D01*
X959697Y525840D01*
X958178Y528471D01*
X956030Y530620D01*
X953398Y532139D01*
X950463Y532926D01*
X947425D01*
X944490Y532139D01*
X942619Y531059D01*
X940777Y533460D01*
X987141Y579823D01*
X1092923D01*
X1093892Y579422D01*
X1096096D01*
X1098132Y580265D01*
X1099691Y581824D01*
X1100534Y583860D01*
Y586064D01*
X1099691Y588100D01*
X1098132Y589659D01*
X1096096Y590502D01*
X1093892D01*
X1092923Y590101D01*
X985012D01*
X983046Y589710D01*
X981378Y588596D01*
X963356Y570573D01*
X962558Y570734D01*
X960484Y571944D01*
Y574192D01*
X959697Y577127D01*
X958178Y579759D01*
X956030Y581907D01*
X954083Y583031D01*
Y609504D01*
X975711Y631131D01*
X983709D01*
Y618744D01*
X998474D01*
X1013239D01*
Y631131D01*
X1079500D01*
X1081467Y631522D01*
X1083134Y632636D01*
X1098374Y647876D01*
X1099488Y649544D01*
X1099879Y651510D01*
Y860552D01*
X1099488Y862518D01*
X1098374Y864186D01*
X1060274Y902286D01*
X1058606Y903400D01*
X1056640Y903791D01*
D02*
G37*
G36*
X999928Y683039D02*
X997020D01*
X994167Y682472D01*
X991480Y681359D01*
X989062Y679743D01*
X987005Y677686D01*
X985389Y675268D01*
X984621Y673413D01*
X934974D01*
X933008Y673022D01*
X931340Y671908D01*
X853673Y594240D01*
X840860D01*
Y574160D01*
X860940D01*
Y586973D01*
X937103Y663135D01*
X984621D01*
X985389Y661280D01*
X987005Y658862D01*
X989062Y656805D01*
X991480Y655189D01*
X994167Y654076D01*
X997020Y653509D01*
X999928D01*
X1002781Y654076D01*
X1005468Y655189D01*
X1007886Y656805D01*
X1009943Y658862D01*
X1011559Y661280D01*
X1012672Y663967D01*
X1013239Y666820D01*
Y669728D01*
X1012672Y672581D01*
X1011559Y675268D01*
X1009943Y677686D01*
X1007886Y679743D01*
X1005468Y681359D01*
X1002781Y682472D01*
X999928Y683039D01*
D02*
G37*
G36*
X454635Y632435D02*
X434365D01*
Y612165D01*
X454635D01*
Y632435D01*
D02*
G37*
G36*
X1013239Y616204D02*
X999744D01*
Y602709D01*
X1013239D01*
Y616204D01*
D02*
G37*
G36*
X997204D02*
X983709D01*
Y602709D01*
X997204D01*
Y616204D01*
D02*
G37*
G36*
X321618Y571690D02*
X318382D01*
X315256Y570852D01*
X312454Y569234D01*
X310165Y566946D01*
X308547Y564144D01*
X307710Y561018D01*
Y557782D01*
X308547Y554656D01*
X310165Y551854D01*
X312454Y549566D01*
X315256Y547948D01*
X318382Y547110D01*
X321618D01*
X324744Y547948D01*
X327546Y549566D01*
X329834Y551854D01*
X331452Y554656D01*
X332290Y557782D01*
Y561018D01*
X331452Y564144D01*
X329834Y566946D01*
X327546Y569234D01*
X324744Y570852D01*
X321618Y571690D01*
D02*
G37*
G36*
X725234Y632435D02*
X722566D01*
X719988Y631744D01*
X717677Y630410D01*
X715790Y628523D01*
X714456Y626212D01*
X713765Y623634D01*
Y620966D01*
X714456Y618388D01*
X715790Y616077D01*
X717677Y614190D01*
X719988Y612856D01*
X722566Y612165D01*
X725234D01*
X726444Y612489D01*
X836966Y501967D01*
X838633Y500853D01*
X840600Y500462D01*
X842274D01*
X842866Y499436D01*
X844735Y497566D01*
X847025Y496244D01*
X849578Y495560D01*
X852222D01*
X854775Y496244D01*
X857065Y497566D01*
X858934Y499436D01*
X860256Y501725D01*
X860940Y504278D01*
Y506922D01*
X860256Y509476D01*
X858934Y511765D01*
X857065Y513634D01*
X854775Y514956D01*
X852222Y515640D01*
X849578D01*
X847025Y514956D01*
X844735Y513634D01*
X842866Y511765D01*
X841838Y511630D01*
X733711Y619756D01*
X734035Y620966D01*
Y623634D01*
X733344Y626212D01*
X732010Y628523D01*
X730123Y630410D01*
X727812Y631744D01*
X725234Y632435D01*
D02*
G37*
G36*
X1156802Y716740D02*
X1154598D01*
X1152562Y715897D01*
X1151003Y714338D01*
X1150160Y712302D01*
Y710098D01*
X1150561Y709129D01*
Y478098D01*
X1147790Y476950D01*
X1094564Y530176D01*
X1066310Y558429D01*
X1065909Y559398D01*
X1064350Y560957D01*
X1062314Y561800D01*
X1060110D01*
X1058074Y560957D01*
X1056515Y559398D01*
X1055672Y557362D01*
Y555158D01*
X1056515Y553122D01*
X1058074Y551563D01*
X1059043Y551162D01*
X1075752Y534452D01*
X1074604Y531681D01*
X1030865D01*
X1029896Y532082D01*
X1027692D01*
X1025656Y531239D01*
X1024097Y529680D01*
X1023254Y527644D01*
Y525440D01*
X1024097Y523404D01*
X1025656Y521845D01*
X1027692Y521002D01*
X1029896D01*
X1030865Y521403D01*
X1088801D01*
X1095951Y514254D01*
X1094708Y511254D01*
X1093892D01*
X1091856Y510411D01*
X1090297Y508852D01*
X1089454Y506816D01*
Y504612D01*
X1090297Y502576D01*
X1091856Y501017D01*
X1092825Y500616D01*
X1125161Y468279D01*
Y453704D01*
X1123828Y452934D01*
X1121866Y450972D01*
X1120478Y448568D01*
X1119760Y445888D01*
Y443112D01*
X1120478Y440432D01*
X1121866Y438028D01*
X1123828Y436066D01*
X1126232Y434678D01*
X1128912Y433960D01*
X1131688D01*
X1134368Y434678D01*
X1136772Y436066D01*
X1138734Y438028D01*
X1140122Y440432D01*
X1140840Y443112D01*
Y445888D01*
X1140122Y448568D01*
X1138734Y450972D01*
X1136772Y452934D01*
X1135439Y453704D01*
Y470408D01*
X1135410Y470552D01*
X1138175Y472030D01*
X1150561Y459644D01*
Y454947D01*
X1149993Y454872D01*
X1148402Y454213D01*
X1147036Y453164D01*
X1145987Y451798D01*
X1145328Y450207D01*
X1145104Y448500D01*
Y440500D01*
X1145328Y438793D01*
X1145987Y437202D01*
X1147036Y435836D01*
X1148402Y434787D01*
X1149993Y434128D01*
X1151700Y433904D01*
X1159700D01*
X1161407Y434128D01*
X1162998Y434787D01*
X1164364Y435836D01*
X1165413Y437202D01*
X1166072Y438793D01*
X1166296Y440500D01*
Y448500D01*
X1166072Y450207D01*
X1165413Y451798D01*
X1164364Y453164D01*
X1162998Y454213D01*
X1161407Y454872D01*
X1160839Y454947D01*
Y461772D01*
Y709129D01*
X1161240Y710098D01*
Y712302D01*
X1160397Y714338D01*
X1158838Y715897D01*
X1156802Y716740D01*
D02*
G37*
G36*
X321618Y496690D02*
X318382D01*
X315256Y495852D01*
X312454Y494234D01*
X310165Y491946D01*
X308547Y489144D01*
X307710Y486018D01*
Y482782D01*
X308547Y479656D01*
X310165Y476854D01*
X312454Y474565D01*
X315256Y472947D01*
X318382Y472110D01*
X321618D01*
X324744Y472947D01*
X327546Y474565D01*
X329834Y476854D01*
X331452Y479656D01*
X332290Y482782D01*
Y486018D01*
X331452Y489144D01*
X329834Y491946D01*
X327546Y494234D01*
X324744Y495852D01*
X321618Y496690D01*
D02*
G37*
G36*
X1106288Y455040D02*
X1106170D01*
Y445770D01*
X1115440D01*
Y445888D01*
X1114722Y448568D01*
X1113334Y450972D01*
X1111372Y452934D01*
X1108968Y454322D01*
X1106288Y455040D01*
D02*
G37*
G36*
X1103630D02*
X1103512D01*
X1100832Y454322D01*
X1098428Y452934D01*
X1096466Y450972D01*
X1095078Y448568D01*
X1094360Y445888D01*
Y445770D01*
X1103630D01*
Y455040D01*
D02*
G37*
G36*
X1115440Y443230D02*
X1106170D01*
Y433960D01*
X1106288D01*
X1108968Y434678D01*
X1111372Y436066D01*
X1113334Y438028D01*
X1114722Y440432D01*
X1115440Y443112D01*
Y443230D01*
D02*
G37*
G36*
X1103630D02*
X1094360D01*
Y443112D01*
X1095078Y440432D01*
X1096466Y438028D01*
X1098428Y436066D01*
X1100832Y434678D01*
X1103512Y433960D01*
X1103630D01*
Y443230D01*
D02*
G37*
G36*
X321618Y421690D02*
X321270D01*
Y410670D01*
X332290D01*
Y411018D01*
X331452Y414144D01*
X329834Y416946D01*
X327546Y419235D01*
X324744Y420853D01*
X321618Y421690D01*
D02*
G37*
G36*
X318730D02*
X318382D01*
X315256Y420853D01*
X312454Y419235D01*
X310165Y416946D01*
X308547Y414144D01*
X307710Y411018D01*
Y410670D01*
X318730D01*
Y421690D01*
D02*
G37*
G36*
X332290Y408130D02*
X321270D01*
Y397110D01*
X321618D01*
X324744Y397948D01*
X327546Y399566D01*
X329834Y401854D01*
X331452Y404656D01*
X332290Y407782D01*
Y408130D01*
D02*
G37*
G36*
X318730D02*
X307710D01*
Y407782D01*
X308547Y404656D01*
X310165Y401854D01*
X312454Y399566D01*
X315256Y397948D01*
X318382Y397110D01*
X318730D01*
Y408130D01*
D02*
G37*
G36*
X1059774Y462072D02*
X1057570D01*
X1055534Y461229D01*
X1053975Y459670D01*
X1053132Y457634D01*
Y455430D01*
X1053975Y453394D01*
X1055534Y451835D01*
X1056503Y451434D01*
X1114060Y393876D01*
X1115727Y392762D01*
X1117694Y392371D01*
X1138897D01*
X1139866Y391970D01*
X1142070D01*
X1144106Y392813D01*
X1145665Y394372D01*
X1146508Y396408D01*
Y398612D01*
X1145665Y400648D01*
X1144106Y402207D01*
X1142070Y403050D01*
X1139866D01*
X1138897Y402649D01*
X1119822D01*
X1063770Y458701D01*
X1063369Y459670D01*
X1061810Y461229D01*
X1059774Y462072D01*
D02*
G37*
G36*
X860940Y365640D02*
X840860D01*
Y345560D01*
X860940D01*
Y365640D01*
D02*
G37*
G36*
X950463Y332926D02*
X947425D01*
X944490Y332140D01*
X941858Y330620D01*
X939710Y328472D01*
X938191Y325840D01*
X937404Y322906D01*
Y319867D01*
X938191Y316932D01*
X939710Y314300D01*
X941858Y312152D01*
X944490Y310633D01*
X947425Y309846D01*
X950463D01*
X953398Y310633D01*
X956030Y312152D01*
X958178Y314300D01*
X959697Y316932D01*
X960484Y319867D01*
Y322906D01*
X959697Y325840D01*
X958178Y328472D01*
X956030Y330620D01*
X953398Y332140D01*
X950463Y332926D01*
D02*
G37*
%LPD*%
D60*
X834390Y434340D02*
X985012Y584962D01*
X621284Y434340D02*
X834390D01*
X985012Y584962D02*
X1094994D01*
X1155700Y461772D02*
Y711200D01*
X1090930Y526542D02*
X1155700Y461772D01*
X1061212Y556260D02*
X1090930Y526542D01*
X1155700Y444500D02*
Y461772D01*
X1028794Y526542D02*
X1090930D01*
X838200Y863600D02*
X849884Y851916D01*
X936016D01*
X947700Y863600D01*
X1117694Y397510D02*
X1140968D01*
X1058672Y456532D02*
X1117694Y397510D01*
X1077468Y690880D02*
X1086562D01*
X998474Y769874D02*
X1077468Y690880D01*
X971016Y875284D02*
X982700Y863600D01*
X884884Y875284D02*
X971016D01*
X873200Y863600D02*
X884884Y875284D01*
X840600Y505600D02*
X850900D01*
X723900Y622300D02*
X840600Y505600D01*
X560400Y857250D02*
X601802Y898652D01*
X1056640D01*
X1094740Y860552D01*
Y651510D02*
Y860552D01*
X1079500Y636270D02*
X1094740Y651510D01*
X973582Y636270D02*
X1079500D01*
X948944Y611632D02*
X973582Y636270D01*
X948944Y572673D02*
Y611632D01*
X946404Y351790D02*
X998728D01*
X869950Y275336D02*
X946404Y351790D01*
X678764Y275336D02*
X869950D01*
X662000Y292100D02*
X678764Y275336D01*
X609600Y308610D02*
X736168D01*
X948944Y521386D01*
X1094994Y505714D02*
X1130300Y470408D01*
Y444500D02*
Y470408D01*
X759000Y784400D02*
X838200Y863600D01*
X320000Y784400D02*
X759000D01*
X320000Y634400D02*
X377750Y692150D01*
X971550D01*
X998474Y719074D01*
X934974Y668274D02*
X998474D01*
X850900Y584200D02*
X934974Y668274D01*
D61*
X850900Y355600D02*
D03*
Y584200D02*
D03*
D62*
Y505600D02*
D03*
Y734200D02*
D03*
D63*
X723900Y622300D02*
D03*
D64*
X444500D02*
D03*
D65*
X948944Y572673D02*
D03*
Y772673D02*
D03*
X662000Y292100D02*
D03*
X862000D02*
D03*
X760400Y857250D02*
D03*
X560400D02*
D03*
X948944Y521386D02*
D03*
Y321386D02*
D03*
D66*
X469900Y844550D02*
D03*
X947700Y863600D02*
D03*
X838200D02*
D03*
D67*
X419100Y844550D02*
D03*
D68*
X982700Y863600D02*
D03*
X873200D02*
D03*
D69*
X1155700Y444500D02*
D03*
D70*
X1130300D02*
D03*
X1104900D02*
D03*
D71*
X998474Y617474D02*
D03*
D72*
Y668274D02*
D03*
Y719074D02*
D03*
Y769874D02*
D03*
D73*
X320000Y559400D02*
D03*
Y709400D02*
D03*
Y634400D02*
D03*
Y484400D02*
D03*
Y409400D02*
D03*
D74*
Y784400D02*
D03*
D75*
X1061212Y556260D02*
D03*
X1028794Y526542D02*
D03*
X1155700Y711200D02*
D03*
X621284Y434340D02*
D03*
X1094994Y584962D02*
D03*
X1140968Y397510D02*
D03*
X1058672Y456532D02*
D03*
X1086562Y690880D02*
D03*
X998728Y351790D02*
D03*
X609600Y308610D02*
D03*
X1094994Y505714D02*
D03*
M02*
