G04*
G04 #@! TF.GenerationSoftware,Altium Limited,Altium Designer,24.5.1 (21)*
G04*
G04 Layer_Physical_Order=1*
G04 Layer_Color=255*
%FSLAX44Y44*%
%MOMM*%
G71*
G04*
G04 #@! TF.SameCoordinates,667E7DA7-0DE7-46C7-9864-8DF00163D8D0*
G04*
G04*
G04 #@! TF.FilePolarity,Positive*
G04*
G01*
G75*
%ADD14C,0.2540*%
%ADD15R,0.9000X1.3000*%
%ADD16R,1.3000X0.9000*%
%ADD17R,1.5500X1.4000*%
%ADD18R,1.4000X1.9000*%
%ADD19R,0.8000X1.1500*%
%ADD20R,1.5500X2.3000*%
%ADD21R,1.2500X0.7000*%
%ADD22R,1.4000X0.9500*%
%ADD23R,1.2500X0.6000*%
%ADD24R,4.1000X2.4000*%
%ADD25R,0.4500X1.1000*%
%ADD26R,1.9000X1.4000*%
%ADD27R,2.4000X1.4000*%
%ADD28R,5.7500X5.9000*%
%ADD29R,0.7000X1.2500*%
%ADD60C,0.5000*%
%ADD61R,1.5000X1.5000*%
%ADD62C,1.5000*%
%ADD63C,1.5190*%
%ADD64R,1.5190X1.5190*%
%ADD65C,1.8000*%
%ADD66C,1.3000*%
%ADD67R,1.3000X1.3000*%
G04:AMPARAMS|DCode=68|XSize=1.3mm|YSize=1.3mm|CornerRadius=0.325mm|HoleSize=0mm|Usage=FLASHONLY|Rotation=0.000|XOffset=0mm|YOffset=0mm|HoleType=Round|Shape=RoundedRectangle|*
%AMROUNDEDRECTD68*
21,1,1.3000,0.6500,0,0,0.0*
21,1,0.6500,1.3000,0,0,0.0*
1,1,0.6500,0.3250,-0.3250*
1,1,0.6500,-0.3250,-0.3250*
1,1,0.6500,-0.3250,0.3250*
1,1,0.6500,0.3250,0.3250*
%
%ADD68ROUNDEDRECTD68*%
G04:AMPARAMS|DCode=69|XSize=1.6mm|YSize=1.6mm|CornerRadius=0.4mm|HoleSize=0mm|Usage=FLASHONLY|Rotation=180.000|XOffset=0mm|YOffset=0mm|HoleType=Round|Shape=RoundedRectangle|*
%AMROUNDEDRECTD69*
21,1,1.6000,0.8000,0,0,180.0*
21,1,0.8000,1.6000,0,0,180.0*
1,1,0.8000,-0.4000,0.4000*
1,1,0.8000,0.4000,0.4000*
1,1,0.8000,0.4000,-0.4000*
1,1,0.8000,-0.4000,-0.4000*
%
%ADD69ROUNDEDRECTD69*%
%ADD70C,1.6000*%
%ADD71R,2.4450X2.4450*%
%ADD72C,2.4450*%
%ADD73C,1.9500*%
G04:AMPARAMS|DCode=74|XSize=1.95mm|YSize=1.95mm|CornerRadius=0.4875mm|HoleSize=0mm|Usage=FLASHONLY|Rotation=270.000|XOffset=0mm|YOffset=0mm|HoleType=Round|Shape=RoundedRectangle|*
%AMROUNDEDRECTD74*
21,1,1.9500,0.9750,0,0,270.0*
21,1,0.9750,1.9500,0,0,270.0*
1,1,0.9750,-0.4875,-0.4875*
1,1,0.9750,-0.4875,0.4875*
1,1,0.9750,0.4875,0.4875*
1,1,0.9750,0.4875,-0.4875*
%
%ADD74ROUNDEDRECTD74*%
%ADD75C,0.6000*%
D14*
X1216653Y762003D02*
Y772160D01*
X1201418D01*
Y762003D01*
X1209036Y772160D02*
Y767082D01*
X1201418Y756925D02*
Y751847D01*
Y754386D01*
X1216653D01*
Y756925D01*
X1201418Y736611D02*
Y741690D01*
X1203958Y744229D01*
X1209036D01*
X1211575Y741690D01*
Y736611D01*
X1209036Y734072D01*
X1206497D01*
Y744229D01*
X1201418Y728994D02*
X1216653D01*
X1206497D02*
X1211575Y721376D01*
X1206497Y728994D02*
X1201418Y721376D01*
X1214114Y703602D02*
X1216653Y706141D01*
Y711220D01*
X1214114Y713759D01*
X1211575D01*
X1209036Y711220D01*
Y706141D01*
X1206497Y703602D01*
X1203958D01*
X1201418Y706141D01*
Y711220D01*
X1203958Y713759D01*
X1211575Y698524D02*
X1203958D01*
X1201418Y695985D01*
Y688367D01*
X1198879D01*
X1196340Y690906D01*
Y693446D01*
X1201418Y688367D02*
X1211575D01*
X1201418Y683289D02*
Y675671D01*
X1203958Y673132D01*
X1206497Y675671D01*
Y680750D01*
X1209036Y683289D01*
X1211575Y680750D01*
Y673132D01*
X1201418Y657897D02*
Y668054D01*
X1211575Y657897D01*
X1214114D01*
X1216653Y660436D01*
Y665515D01*
X1214114Y668054D01*
X1211575Y652819D02*
Y650279D01*
X1209036D01*
Y652819D01*
X1211575D01*
X1203958D02*
Y650279D01*
X1201418D01*
Y652819D01*
X1203958D01*
X1214114Y614731D02*
X1216653Y617270D01*
Y622349D01*
X1214114Y624888D01*
X1211575D01*
X1209036Y622349D01*
Y617270D01*
X1206497Y614731D01*
X1203958D01*
X1201418Y617270D01*
Y622349D01*
X1203958Y624888D01*
X1211575Y607113D02*
Y602035D01*
X1209036Y599496D01*
X1201418D01*
Y607113D01*
X1203958Y609653D01*
X1206497Y607113D01*
Y599496D01*
X1201418Y594417D02*
X1211575D01*
Y591878D01*
X1209036Y589339D01*
X1201418D01*
X1209036D01*
X1211575Y586800D01*
X1209036Y584261D01*
X1201418D01*
Y579182D02*
Y574104D01*
Y576643D01*
X1211575D01*
Y579182D01*
Y566487D02*
X1201418D01*
X1206497D01*
X1209036Y563947D01*
X1211575Y561408D01*
Y558869D01*
X1201418Y536016D02*
X1216653D01*
X1211575Y530938D01*
X1216653Y525860D01*
X1201418D01*
X1211575Y518242D02*
Y513164D01*
X1209036Y510625D01*
X1201418D01*
Y518242D01*
X1203958Y520781D01*
X1206497Y518242D01*
Y510625D01*
X1211575Y495390D02*
Y503007D01*
X1209036Y505546D01*
X1203958D01*
X1201418Y503007D01*
Y495390D01*
X1216653Y490311D02*
X1201418D01*
X1209036D01*
X1211575Y487772D01*
Y482694D01*
X1209036Y480154D01*
X1201418D01*
Y475076D02*
X1216653D01*
X1206497D02*
X1211575Y467459D01*
X1206497Y475076D02*
X1201418Y467459D01*
Y457302D02*
Y452224D01*
X1203958Y449684D01*
X1209036D01*
X1211575Y452224D01*
Y457302D01*
X1209036Y459841D01*
X1203958D01*
X1201418Y457302D01*
X1211575Y444606D02*
X1203958D01*
X1201418Y442067D01*
Y434449D01*
X1211575D01*
Y429371D02*
X1201418D01*
X1206497D01*
X1209036Y426832D01*
X1211575Y424292D01*
Y421753D01*
D15*
X1076300Y622300D02*
D03*
X1057300D02*
D03*
D16*
X984758Y536804D02*
D03*
Y517804D02*
D03*
X1104900Y631800D02*
D03*
Y612800D02*
D03*
D17*
X1166368Y378712D02*
D03*
X1140968D02*
D03*
Y283212D02*
D03*
X1166368D02*
D03*
D18*
X1000760Y375430D02*
D03*
X1026160D02*
D03*
X1051560D02*
D03*
Y282430D02*
D03*
X1026160D02*
D03*
X1000760D02*
D03*
D19*
X1097788Y308890D02*
D03*
Y343890D02*
D03*
X1034288Y426264D02*
D03*
Y461264D02*
D03*
D20*
X1065276Y728546D02*
D03*
Y685546D02*
D03*
D21*
X990854Y453738D02*
D03*
Y433738D02*
D03*
X1136396Y528734D02*
D03*
Y548734D02*
D03*
X1169162Y528734D02*
D03*
Y548734D02*
D03*
X1018794Y536542D02*
D03*
Y516542D02*
D03*
X1070356Y456532D02*
D03*
Y436532D02*
D03*
D22*
X1143000Y628600D02*
D03*
Y609600D02*
D03*
D23*
X1104900Y711200D02*
D03*
Y692200D02*
D03*
X1125900Y701700D02*
D03*
D24*
X1088644Y543874D02*
D03*
D25*
X1069594Y571874D02*
D03*
X1082294D02*
D03*
X1094994D02*
D03*
X1107694D02*
D03*
Y515874D02*
D03*
X1094994D02*
D03*
X1082294D02*
D03*
X1069594D02*
D03*
D26*
X652000Y349250D02*
D03*
Y374650D02*
D03*
Y400050D02*
D03*
X745000D02*
D03*
Y374650D02*
D03*
Y349250D02*
D03*
D27*
X487200Y351800D02*
D03*
Y397500D02*
D03*
D28*
X552450Y374650D02*
D03*
D29*
X613250Y286004D02*
D03*
X593250D02*
D03*
X504378Y288290D02*
D03*
X484378D02*
D03*
X447896Y288036D02*
D03*
X427896D02*
D03*
X561942D02*
D03*
X541942D02*
D03*
D60*
X1179322Y265938D02*
Y273050D01*
X1122680Y701700D02*
Y703072D01*
Y701700D02*
X1125900D01*
X1077976D02*
X1122680D01*
X1076604Y703072D02*
X1122680D01*
X1073150D02*
X1076604D01*
X1094045Y614130D02*
X1095375Y612800D01*
X1089660Y618515D02*
X1094045Y614130D01*
X1065276Y710946D02*
Y716026D01*
X1069086Y707136D02*
X1073150Y703072D01*
X1065276Y710946D02*
X1069086Y707136D01*
X1072540D01*
X1060450D02*
X1069086D01*
X1076604Y703072D02*
X1077976Y701700D01*
X1072540Y707136D02*
X1076604Y703072D01*
X1131316Y470916D02*
Y528734D01*
X1120565D02*
X1131316D01*
X1114828Y320294D02*
X1119378D01*
X1082802D02*
X1114828D01*
Y434572D01*
Y298684D02*
Y320294D01*
X1052322Y699008D02*
Y703072D01*
Y668782D02*
Y699008D01*
Y651408D02*
Y668782D01*
X1107694Y570230D02*
X1113420D01*
X973074Y693674D02*
X998474Y719074D01*
X934720Y655320D02*
X973074Y693674D01*
X1078865Y682879D02*
X1088186Y692200D01*
X1065276Y682879D02*
X1078865D01*
X1034288Y467445D02*
X1079964D01*
X992124Y282194D02*
X1000760D01*
X447896Y331376D02*
Y355600D01*
Y288036D02*
Y331376D01*
X1076300Y611988D02*
Y622300D01*
X1061212Y596900D02*
X1076300Y611988D01*
X1061212Y556260D02*
Y596900D01*
X1018794Y516542D02*
X1028794Y526542D01*
X1104900Y711200D02*
X1155700D01*
X541942Y288036D02*
Y298356D01*
X586727Y343141D01*
Y399783D01*
X621284Y434340D01*
X1094994Y571874D02*
Y584962D01*
X297209Y761610D02*
X320000Y784400D01*
X297209Y432191D02*
Y761610D01*
Y432191D02*
X320000Y409400D01*
X733425Y374650D02*
X745000D01*
X730250Y377825D02*
X733425Y374650D01*
X730250Y377825D02*
Y595630D01*
X870712Y736092D01*
Y831088D01*
X838200Y863600D02*
X870712Y831088D01*
X1069594Y571874D02*
Y589679D01*
X1094045Y614130D01*
X1104900Y612800D01*
X947700Y863600D02*
X972566Y838734D01*
Y762000D02*
Y838734D01*
Y762000D02*
X987044Y747522D01*
X1060704D01*
X1065276Y728546D01*
X1154938Y283212D02*
X1166368D01*
X1154938D02*
Y304038D01*
X1128014Y330962D02*
X1154938Y304038D01*
X1128014Y330962D02*
Y395986D01*
X1169162Y437134D01*
Y528734D01*
X1140968Y378712D02*
Y397510D01*
X1058672Y456532D02*
X1070356D01*
X948944Y511926D02*
Y521386D01*
Y511926D02*
X1017031Y446380D01*
Y425450D02*
Y446380D01*
Y425450D02*
X1051560Y390921D01*
Y375430D02*
Y390921D01*
X619346Y292100D02*
X662000D01*
X613250Y286004D02*
X619346Y292100D01*
X1034288Y426264D02*
Y440436D01*
X973074Y501650D02*
X1034288Y440436D01*
X973074Y501650D02*
Y693674D01*
X850900Y355600D02*
X900430Y306070D01*
X958850D01*
X963168Y310388D01*
Y467360D01*
X934720Y495808D02*
X963168Y467360D01*
X934720Y495808D02*
Y655320D01*
X1088186Y692200D02*
X1104900D01*
X1086562Y690880D02*
X1088186Y692200D01*
X998474Y769874D02*
Y847826D01*
X982700Y863600D02*
X998474Y847826D01*
X850900Y734200D02*
Y766750D01*
X760400Y857250D02*
X850900Y766750D01*
X487200Y397500D02*
X509270D01*
X723900Y612130D01*
Y622300D01*
X850900Y419430D02*
Y505600D01*
Y419430D02*
X948944Y321386D01*
X444500Y622300D02*
Y819150D01*
X469900Y844550D01*
X561942Y288036D02*
Y307042D01*
X626999Y372099D01*
Y402971D01*
X636270Y412242D01*
X673100D01*
X711200Y374142D01*
Y361950D02*
Y374142D01*
Y361950D02*
X723900Y349250D01*
X745000D01*
X419100Y583500D02*
Y844550D01*
X320000Y484400D02*
X419100Y583500D01*
X320000Y709400D02*
X337566Y691834D01*
Y527657D02*
Y691834D01*
X305209Y495300D02*
X337566Y527657D01*
X305209Y474063D02*
Y495300D01*
Y474063D02*
X447896Y331376D01*
X487200Y351800D02*
X500380D01*
X533401Y318779D01*
Y276746D02*
Y318779D01*
Y276746D02*
X571500D01*
X579046Y284291D01*
Y290106D01*
X636492Y347552D01*
Y397478D01*
X639064Y400050D01*
X652000D01*
Y349250D02*
X669798D01*
X676148Y342900D01*
Y278130D02*
Y342900D01*
X666242Y268224D02*
X676148Y278130D01*
X530225Y268224D02*
X666242D01*
X525401Y273048D02*
X530225Y268224D01*
X525401Y273048D02*
Y286129D01*
X508508Y303022D02*
X525401Y286129D01*
X488950Y303022D02*
X508508D01*
X484378Y298450D02*
X488950Y303022D01*
X484378Y288290D02*
Y298450D01*
X1000760Y353822D02*
Y375430D01*
X998728Y351790D02*
X1000760Y353822D01*
X593250Y286004D02*
Y292260D01*
X609600Y308610D01*
X1026160Y269875D02*
Y282430D01*
Y269875D02*
X1029589Y266446D01*
X1060704D01*
X1067308Y273050D01*
Y304800D01*
X1082802Y320294D01*
X1119378D02*
X1140968Y298704D01*
Y283212D02*
Y298704D01*
X1166368Y325374D02*
Y378712D01*
X1168400Y255016D02*
X1179322Y265938D01*
X899084Y255016D02*
X1168400D01*
X862000Y292100D02*
X899084Y255016D01*
X1166368Y325374D02*
X1179322Y312420D01*
Y273050D02*
Y312420D01*
X1175512Y269240D02*
X1179322Y273050D01*
X1101598Y269240D02*
X1175512D01*
X1097788Y273050D02*
X1101598Y269240D01*
X1097788Y273050D02*
Y308890D01*
X1044556Y436532D02*
X1070356D01*
X1034288Y426264D02*
X1044556Y436532D01*
X1094994Y505714D02*
Y515874D01*
X998474Y541503D02*
Y617474D01*
X993775Y536804D02*
X998474Y541503D01*
X984758Y536804D02*
X993775D01*
X1082294Y571874D02*
Y589788D01*
X1093724Y601218D01*
X1116330D01*
X1120394Y605282D01*
Y618694D01*
X1130300Y628600D01*
X1143000D01*
X984250Y433738D02*
X990854D01*
X980440Y429928D02*
X984250Y433738D01*
X980440Y277876D02*
Y429928D01*
Y277876D02*
X990600Y267716D01*
X1013968D01*
Y295275D01*
X1047369Y328676D01*
X1102129D01*
X1106828Y333375D01*
Y416577D01*
X1091860Y431546D02*
X1106828Y416577D01*
X1091860Y431546D02*
Y475234D01*
X1082294Y484800D02*
X1091860Y475234D01*
X1082294Y484800D02*
Y515874D01*
X1162050Y548734D02*
X1169162D01*
X1155890Y542574D02*
X1162050Y548734D01*
X1155890Y538924D02*
Y542574D01*
X1155700Y538734D02*
X1155890Y538924D01*
X1155700Y444500D02*
Y538734D01*
X1117106Y532193D02*
X1120565Y528734D01*
X1117106Y532193D02*
Y555230D01*
X1111250Y561086D02*
X1117106Y555230D01*
X1073150Y561086D02*
X1111250D01*
X1069594Y564642D02*
X1073150Y561086D01*
X1069594Y564642D02*
Y571874D01*
X1136396Y548734D02*
X1143000Y555338D01*
Y609600D01*
X1107694Y570230D02*
Y571874D01*
X1113420Y570230D02*
X1125106Y558544D01*
Y540193D02*
Y558544D01*
Y540193D02*
X1147826D01*
Y546100D01*
X1161034Y559308D01*
X1176909D01*
X1180592Y555625D01*
Y533400D02*
Y555625D01*
X1175926Y528734D02*
X1180592Y533400D01*
X1169162Y528734D02*
X1175926D01*
X1063486Y515874D02*
X1069594D01*
X1062818Y516542D02*
X1063486Y515874D01*
X1018794Y516542D02*
X1062818D01*
X1107694Y515874D02*
Y526796D01*
X1052416D02*
X1107694D01*
X1042670Y536542D02*
X1052416Y526796D01*
X1018794Y536542D02*
X1042670D01*
X1097788Y343890D02*
Y409531D01*
X1083860Y423460D02*
X1097788Y409531D01*
X1083860Y423460D02*
Y463550D01*
X1079964Y467445D02*
X1083860Y463550D01*
X1034288Y461264D02*
Y467445D01*
X1130300Y283212D02*
X1140968D01*
X1114828Y298684D02*
X1130300Y283212D01*
X1104900Y444500D02*
X1114828Y434572D01*
X1000760Y282194D02*
Y282430D01*
X988568Y285750D02*
X992124Y282194D01*
X988568Y285750D02*
Y393700D01*
X1002284Y407416D01*
Y442308D01*
X990854Y453738D02*
X1002284Y442308D01*
X1057300Y622300D02*
Y646430D01*
X1052322Y651408D02*
X1057300Y646430D01*
X1052322Y703072D02*
X1065276Y716026D01*
Y728546D01*
X466946Y374650D02*
X552450D01*
X447896Y355600D02*
X466946Y374650D01*
X1131316Y528734D02*
X1136396D01*
X1104900Y444500D02*
X1131316Y470916D01*
X850900Y505600D02*
X871728Y526428D01*
Y695457D01*
X948944Y772673D01*
X1065276Y682879D02*
Y685546D01*
X1095375Y612800D02*
X1104900D01*
X1089660Y618515D02*
Y631444D01*
X1052322Y668782D02*
X1089660Y631444D01*
X1052322Y699008D02*
X1060450Y707136D01*
X1030224Y622300D02*
X1057300D01*
X1025398Y617474D02*
X1030224Y622300D01*
X998474Y617474D02*
X1025398D01*
X1011116Y536542D02*
X1018794D01*
X992378Y517804D02*
X1011116Y536542D01*
X984758Y517804D02*
X992378D01*
X427896Y278986D02*
Y288036D01*
Y278986D02*
X438150Y268732D01*
X495300D01*
X504378Y277810D01*
Y288290D01*
X320000Y559400D02*
Y634400D01*
X1104900Y631800D02*
Y692200D01*
D61*
X850900Y355600D02*
D03*
Y584200D02*
D03*
D62*
Y505600D02*
D03*
Y734200D02*
D03*
D63*
X723900Y622300D02*
D03*
D64*
X444500D02*
D03*
D65*
X948944Y572673D02*
D03*
Y772673D02*
D03*
X662000Y292100D02*
D03*
X862000D02*
D03*
X760400Y857250D02*
D03*
X560400D02*
D03*
X948944Y521386D02*
D03*
Y321386D02*
D03*
D66*
X469900Y844550D02*
D03*
X947700Y863600D02*
D03*
X838200D02*
D03*
D67*
X419100Y844550D02*
D03*
D68*
X982700Y863600D02*
D03*
X873200D02*
D03*
D69*
X1155700Y444500D02*
D03*
D70*
X1130300D02*
D03*
X1104900D02*
D03*
D71*
X998474Y617474D02*
D03*
D72*
Y668274D02*
D03*
Y719074D02*
D03*
Y769874D02*
D03*
D73*
X320000Y559400D02*
D03*
Y709400D02*
D03*
Y634400D02*
D03*
Y484400D02*
D03*
Y409400D02*
D03*
D74*
Y784400D02*
D03*
D75*
X1061212Y556260D02*
D03*
X1028794Y526542D02*
D03*
X1155700Y711200D02*
D03*
X621284Y434340D02*
D03*
X1094994Y584962D02*
D03*
X1140968Y397510D02*
D03*
X1058672Y456532D02*
D03*
X1086562Y690880D02*
D03*
X998728Y351790D02*
D03*
X609600Y308610D02*
D03*
X1094994Y505714D02*
D03*
M02*
