G04*
G04 #@! TF.GenerationSoftware,Altium Limited,Altium Designer,24.5.1 (21)*
G04*
G04 Layer_Color=16711935*
%FSLAX44Y44*%
%MOMM*%
G71*
G04*
G04 #@! TF.SameCoordinates,667E7DA7-0DE7-46C7-9864-8DF00163D8D0*
G04*
G04*
G04 #@! TF.FilePolarity,Negative*
G04*
G01*
G75*
%ADD45R,1.7032X1.7032*%
%ADD46C,1.7032*%
%ADD47C,1.7222*%
%ADD48R,1.7222X1.7222*%
%ADD49C,2.0032*%
%ADD50C,1.5032*%
%ADD51R,1.5032X1.5032*%
G04:AMPARAMS|DCode=52|XSize=1.5032mm|YSize=1.5032mm|CornerRadius=0.4266mm|HoleSize=0mm|Usage=FLASHONLY|Rotation=0.000|XOffset=0mm|YOffset=0mm|HoleType=Round|Shape=RoundedRectangle|*
%AMROUNDEDRECTD52*
21,1,1.5032,0.6500,0,0,0.0*
21,1,0.6500,1.5032,0,0,0.0*
1,1,0.8532,0.3250,-0.3250*
1,1,0.8532,-0.3250,-0.3250*
1,1,0.8532,-0.3250,0.3250*
1,1,0.8532,0.3250,0.3250*
%
%ADD52ROUNDEDRECTD52*%
G04:AMPARAMS|DCode=53|XSize=1.8032mm|YSize=1.8032mm|CornerRadius=0.5016mm|HoleSize=0mm|Usage=FLASHONLY|Rotation=180.000|XOffset=0mm|YOffset=0mm|HoleType=Round|Shape=RoundedRectangle|*
%AMROUNDEDRECTD53*
21,1,1.8032,0.8000,0,0,180.0*
21,1,0.8000,1.8032,0,0,180.0*
1,1,1.0032,-0.4000,0.4000*
1,1,1.0032,0.4000,0.4000*
1,1,1.0032,0.4000,-0.4000*
1,1,1.0032,-0.4000,-0.4000*
%
%ADD53ROUNDEDRECTD53*%
%ADD54C,1.8032*%
%ADD55R,2.6482X2.6482*%
%ADD56C,2.6482*%
%ADD57C,2.1532*%
G04:AMPARAMS|DCode=58|XSize=2.1532mm|YSize=2.1532mm|CornerRadius=0.5891mm|HoleSize=0mm|Usage=FLASHONLY|Rotation=270.000|XOffset=0mm|YOffset=0mm|HoleType=Round|Shape=RoundedRectangle|*
%AMROUNDEDRECTD58*
21,1,2.1532,0.9750,0,0,270.0*
21,1,0.9750,2.1532,0,0,270.0*
1,1,1.1782,-0.4875,-0.4875*
1,1,1.1782,-0.4875,0.4875*
1,1,1.1782,0.4875,0.4875*
1,1,1.1782,0.4875,-0.4875*
%
%ADD58ROUNDEDRECTD58*%
%ADD59C,0.8032*%
D45*
X850900Y355600D02*
D03*
Y584200D02*
D03*
D46*
Y505600D02*
D03*
Y734200D02*
D03*
D47*
X723900Y622300D02*
D03*
D48*
X444500D02*
D03*
D49*
X948944Y572673D02*
D03*
Y772673D02*
D03*
X662000Y292100D02*
D03*
X862000D02*
D03*
X760400Y857250D02*
D03*
X560400D02*
D03*
X948944Y521386D02*
D03*
Y321386D02*
D03*
D50*
X469900Y844550D02*
D03*
X947700Y863600D02*
D03*
X838200D02*
D03*
D51*
X419100Y844550D02*
D03*
D52*
X982700Y863600D02*
D03*
X873200D02*
D03*
D53*
X1155700Y444500D02*
D03*
D54*
X1130300D02*
D03*
X1104900D02*
D03*
D55*
X998474Y617474D02*
D03*
D56*
Y668274D02*
D03*
Y719074D02*
D03*
Y769874D02*
D03*
D57*
X320000Y559400D02*
D03*
Y709400D02*
D03*
Y634400D02*
D03*
Y484400D02*
D03*
Y409400D02*
D03*
D58*
Y784400D02*
D03*
D59*
X1061212Y556260D02*
D03*
X1028794Y526542D02*
D03*
X1155700Y711200D02*
D03*
X621284Y434340D02*
D03*
X1094994Y584962D02*
D03*
X1140968Y397510D02*
D03*
X1058672Y456532D02*
D03*
X1086562Y690880D02*
D03*
X998728Y351790D02*
D03*
X609600Y308610D02*
D03*
X1094994Y505714D02*
D03*
M02*
